<?xml version="1.0" encoding="UTF-8"?>
<svg xmlns="http://www.w3.org/2000/svg" viewBox="0 0 404.85 400.31">
  <defs>
    <style>
      .cls-1 {
        fill: #fff;
      }

      .cls-2 {
        fill: red;
      }

      .cls-3 {
        fill: #031bbb;
      }
    </style>
  </defs>
  <g id="Layer_2" data-name="Layer 2">
    <path class="cls-2" d="M105.17,211.15c8.05-1.06,260.57-1.01,266.58,0,3.27,11.1,10.15,27.39,20.49,37.39,4.43,4.54,11.93,6.29,12.36,13.47.54,4.87.45,13.5-2.28,20.45-.89,2.05-1.32,3.66-2.39,2.71-1.87-2.58-7.73-11.63-9.28-21.67-.52-2.73-.36-5.78-1.73-8.04-4.7-5.74-11.74-14.97-16.82-18.55-2.93-1.22-7.6-1.03-7.11,2.08-.2,6.84.65,31.34,8.72,49.84,3.56,6.35,2.52,13.49,2.88,20.5.54,5.07-2.66,5.9-4.15,10.17-1.89,4.83-3.55,9.29-3.2,14.37-.11,9.32-.33,30.09-.39,34.6-.04,1.11-.12,1.68-.81,2.68-6.31,8.46-13.43,24.96-24.09,27.78-7.19,1.36-16.43,2.04-23.25.51-1.69-1.21-4.09-4-5.9-6.02-.88-1.07-1.57-2.28-1.31-3.71.36-2.82,2.88-5.22,5.11-6.92,4.46-3.68,10.08-9.9,13.67-14.09.73-.84.95-1.66,1.04-2.75.2-2.7.56-11.52.76-15.21.2-6.34,4.08-13.05,6.2-19.42,1.47-6.52.91-26.3.6-35.77-.21-3.04.07-4.05-.42-6.06-.47-2.12-9.44-23.76-20.31-34.02-3.47-3.26-6.62.38-5.79,4.06,1.86,5.87,5.76,15.65,7.09,20.03,5.45,9.52-21.06,28.15-27.55,35.76-2.27,6.33-.83,18.19-1.83,25.18-1.96,3.44-18.72,22.61-29.13,38.23-2.09,2.96-3.24,5.83-7.43,5.67-5.8.27-15.77.94-20.07,1.09-4.72.07-7.98-6.83-7.49-11.44,1.81-5.03,5.2-7.79,9.04-13.95,10.75-15.51,26.63-37.92,29.11-41.83.15-3.65.64-7.95,2.2-12.09,1.22-4.36,3.7-6.27,3.71-9.44-1.1-4.74-6.82-27.81-18.09-43-1.57-1.8-3.1-4.82-5.22-5.2-6.12.46-49.41,3.74-72.4,8.24-5.98.64-13.94,16.65-17.24,26.36-3.75,10.17-1.87,20.81-2.3,30.91-.64,8.16,5.29,11.65,6.05,22.94.33,2.78-.18,5.8,2.14,7.69,2.91,2.35,9.82,7.44,12.74,9.71,1.84,1.44,2.1,1.67,1.11,2.88-4.36,4.58-21.23,26.14-25.41,29.1-3.78-.83-7.73-6.69-11.92-4.68-3.5,1.88-2.52,8.32-2.49,11.25.13,1.75-.05,2.42-1.66,2.35-6.31.08-33.09.38-37.29.43-3.08.55-5.82-2.01-6.18-5.42-.32-3.53.02-6.04,1.65-8.63,3.15-4.53,14.66-20.89,18.77-26.76,3.35-4.09-.1-3.58.95-11.65.36-6.6,3.71-12.65,5.4-18.63.02-6.72-.22-30.33-.34-41.39-.08-11.93-11.16-52.4-15.1-71.97l-.02-.12Z"/>
    <path class="cls-3" d="M101.1,199.67c.26.67.42.99.56,1.09,2.06.14,24.18.02,55.09.06,78.17,0,212.25,0,217.36,0,.12,0,.18-.03.24-.14.11-.22.28-1.05.66-2.66,3.55-16.12,7.91-40.21,5.32-56.73-5.86-21.93-16.86-42.41-49.9-50.72-3.93-.99-8.02-1.87-11.67-2.36-1.59.03-14.48.58-42.25,9.12-18.1,5.21-34.64,12.68-52.68,19.09-7.39.17-39.07,0-45.99.06-1.09-.04-1.31.1-1.97-.34-2.69-2.25-30.1-25.54-47.47-38.25-5.8-4.15-9.96-7.46-16.45-9.32-8.83-3.29-20.69-8.69-30.91-9.79-2.83-1.55-4.43-5.58-4.5-8.76-.06-4.55,0-16.18-.03-19.5.03-2.23-.59-3.51-1.28-5.85-1.77-5.62-5.2-16.32-7.76-21.26-1.09-2.81-5.35-4.89-7.31-2-1.8,2.17-10.79,14.09-12.06,20.85-.52,4.93-.06,13.28-.21,17.82-.03,1.14,0,2.05-.34,3.08-.58,1.83-3.61,4.74-5.18,4.57-10.84-6.82-19.77-29.64-23.14-39.38-.87-2.65-5.76-2.49-6.81,0-2.55,5.54-8.15,24.19-5.34,36.14,1.46,9.14,8,15.94,14.02,22.77,1.95,2.1,1.83,3.75.3,6.32-2.01,4.01-4.36,8.64-6.14,12.85-1.74,4.06-1.66,5.33-1.86,10.17-.28,7.24-.41,15.73-.56,22.76-.11,1.74.18,2.2-.49,3.34-2.18,2.3-13.81,25.16-12.19,42.12-.73,12.1,11.77,16.33,22.1,16.86,21.5,1.7,40.05-19.15,45.23-23.1,2.07-.61,4.91-.21,6.54,1.3,4.42,3.57,14.1,13.9,21.13,26.54,2.15,3.67,4.95,10.34,5.86,13l.09.23Z"/>
  </g>
  <g id="Layer_3" data-name="Layer 3">
    <polygon class="cls-1" points="153.64 187.2 136.47 175.05 119.61 187.62 125.86 167.54 108.7 155.38 129.73 155.13 135.98 135.04 142.72 154.97 163.76 154.71 146.89 167.28 153.64 187.2"/>
    <polygon class="cls-1" points="291.68 187.2 274.52 175.05 257.65 187.62 263.91 167.54 246.74 155.38 267.77 155.13 274.02 135.04 280.77 154.97 301.8 154.71 284.94 167.28 291.68 187.2"/>
    <polygon class="cls-1" points="358.48 187.2 341.31 175.05 324.45 187.62 330.7 167.54 313.54 155.38 334.57 155.13 340.82 135.04 347.56 154.97 368.6 154.71 351.73 167.28 358.48 187.2"/>
    <polygon class="cls-1" points="222.58 187.53 205.42 175.38 188.55 187.95 194.81 167.87 177.64 155.72 198.67 155.46 204.93 135.38 211.67 155.3 232.7 155.04 215.84 167.61 222.58 187.53"/>
  </g>
</svg>