<?xml version="1.0" encoding="UTF-8"?>
<svg id="Layer_1" xmlns="http://www.w3.org/2000/svg" version="1.1" viewBox="0 0 1000 1000">
  <!-- Generator: Adobe Illustrator 29.0.1, SVG Export Plug-In . SVG Version: 2.1.0 Build 192)  -->
  <defs>
    <style>
      .st0 {
        fill: #F5F5F5;
      }

      .st1 {
        fill: #A51C30;
      }

      .st2 {
        fill: #0A1E3F;
      }
    </style>
  </defs>
  <path class="st1" d="M301.9,710.7c187-95.5,254.7-33.8,348-170.1-131.6,70.1-221.5,12.2-348,170.1Z"/>
  <path class="st1" d="M341,654.4c167.1-164.9,301.1-46.1,416.3-249.8-97.5,98.9-279.3,16.3-416.3,249.8Z"/>
  <path class="st1" d="M429.7,530.6c149.4-143.6,327.4-36.2,419.8-281.3-103.8,151.3-269.4,47.7-419.8,281.3Z"/>
  <path class="st2" d="M293.1,705.1s2.7-2.7,5.6-6.6c33.1-44.4,124.6-185.7,171-237.2,26-29.1,62.8-67.8,100.4-89.6,65.3-39.7,127.3-42.7,189-78.6,48.6-23,92.1-68.4,120.4-146,4.1-10.3,6.3-16.2,9.4-25.4.3-1.3.4-1.8-.5-1.8-68.7,10.6-150.4,26.9-216,55.3-79.7,35.3-150.3,80.2-166.8,115.8-7.7,29.2-19.2,92.3-21,112.3-.2.8.3,4.9-.6,4-.9-.9-3.7-6.8-6.4-15.5-9.2-26.8-8.1-57.9-1.6-84.6.4-1.9,1-2.9-.2-1.8-16.5,17.6-108.3,103.7-125.8,148.2-4.5,13.3-6.5,31.8-7.4,46.6-.9,20.9.8,38.1,2.3,49.7.6,5.2,1.7,7.7-1.4,3.6-10.8-12.6-16.5-41-21-54.8-.8-2.2-.9-3.2-1.8-1.8-3.6,6.4-24.5,44.2-41,81.3-8.8,19.7-15.9,39.2-22.2,58.7-4,13.3-10.2,41.2-9.4,42.4s14.3,3.5,25,9.6c10.6,6.1,19.9,16.1,19.9,16.1Z"/>
  <path d="M202.6,847.8c15.7-38.4,58.5-96,58.5-96-5.1-9.3-15.4-17.1-15.4-17.1,0,0-10.3-7.8-21.2-10.6,0,0-52,50.5-89.3,72.6,0,0,17.8,38.2-12.2,64.7l3,2.3,39.1-43.9c-4.3-5.9-4.1-13.9,1-19.7s17.5-8.2,25.1-2.4c7.6,5.8,8.8,16.2,2.6,23.3s-14.3,7.7-21.6,4.4l-38.2,44.3,3,2.3c21.8-32.6,65.7-24.1,65.7-24.1Z"/>
  <path d="M287.2,719c5.7,11.9-.6,21.7-11.8,26.5-2.2,1.1-3.3,1-4.7-1-13-15.9-22.1-22.5-40.8-30.9-1.1-.5-2.2-1.2-2-2.5.5-2.5,1.2-4.9,2.6-7.4,4.6-8.6,13.1-12.2,23.6-10,9.5,1.8,29.3,16.7,33,25.2h0Z"/>
  <polygon class="st0" points="761.9 215.9 728.1 239.4 741.7 276.5 707.3 253.9 673.5 277.4 686 239.9 651.5 217.3 693.7 216.8 706.2 179.3 719.7 216.4 761.9 215.9"/>
</svg>
