<?xml version="1.0" encoding="UTF-8"?>
<svg id="Layer_2" xmlns="http://www.w3.org/2000/svg" version="1.1" viewBox="0 0 504.9 443.6">
  <!-- Generator: Adobe Illustrator 29.0.1, SVG Export Plug-In . SVG Version: 2.1.0 Build 192)  -->
  <defs>
    <style>
      .st0 {
        fill: #1603c0;
      }

      .st1 {
        fill: #fff;
      }

      .st2 {
        fill: #e00101;
      }
    </style>
  </defs>
  <path class="st2" d="M41.6,206.2h363.9s8.3-.6,8.3,8.9,2.4,147,2.4,147c0,0,0,13,10.7,12.4s13.6-18.6,10.7-33.4,0-.6,0-.9c0-1.9.4-8.4,6.5-8.4h26.1s6.5-.6,8.3,6.5,2.4,79.8-53.7,81.2c-.1,0-.2,0-.4,0-3.1.3-52.7,4.7-60.7-62.8,0,0-7.1-41.5-9.8-42.4,0,0-1.1-5.6-6.5-8.2s-7.4.8-7.5,4.5,0,.1,0,.2v90.4c0,.3-.3,2.4-.3,2.7-.3,1.9-1.8,7.4-11.8,7.7s-69.9.6-69.9.6c0,0-8.6-.9-8.3-10.7s.3-56.7.3-63.5-.1-1.3-.4-1.9c-.7-1.8-2.6-5.1-7.3-6.6s-96.8-.2-105.7,0-1.1.1-1.6.3c-1.8.6-5.8,2.4-6.2,6.5l-.6,5c0,.2,0,.4,0,.6v58.7s-.3,12.1-9.5,12.4-73.5-.3-73.5-.3c0,0-9.2.6-9.2-9.2v-188.1s-.6-9.3,5.8-9.3Z"/>
  <path class="st0" d="M50,194.4h354.4s9,1.9,9.4-10.1,5.5-61.7-20.3-99-64-46.7-109.3-52.9c-45.3-6.2-108.4,0-108.4,0,0,0-67.1,6.2-99.6,33.8s-40.4,52.4-40.4,117.8c0,0-1.5,10.5,14.2,10.5Z"/>
  <polygon class="st1" points="163.1 132 126.9 131.9 115.6 166.2 104.5 131.8 68.3 131.6 97.7 110.5 86.7 76 115.9 97.4 145.2 76.2 133.9 110.6 163.1 132"/>
  <polygon class="st1" points="273.8 131.5 237.6 131.4 226.3 165.8 215.2 131.3 179 131.2 208.4 110 197.3 75.5 226.5 96.9 255.9 75.8 244.6 110.2 273.8 131.5"/>
  <polygon class="st1" points="384 132.1 347.8 132 336.5 166.4 325.4 131.9 289.2 131.8 318.6 110.6 307.6 76.1 336.8 97.5 366.1 76.4 354.8 110.7 384 132.1"/>
</svg>